<svg width="178" height="40" viewBox="0 0 178 40" fill="none" xmlns="http://www.w3.org/2000/svg">
<path d="M4.76263 40C2.15259 40 0.0560141 37.8481 0.123932 35.239L1.04122 0H14.5551C17.2578 0 19.5805 0.437338 21.5231 1.31201C23.4939 2.18669 25.0142 3.45638 26.084 5.12109C27.1539 6.75758 27.6888 8.70444 27.6888 10.9617C27.6888 13.1907 27.1539 15.1234 26.084 16.7599C25.0142 18.3964 23.4939 19.6661 21.5231 20.569C19.5805 21.4437 17.2578 21.881 14.5551 21.881H5.6866L9.4029 18.2412V35.3597C9.4029 37.9225 7.32538 40 4.76263 40ZM9.4029 19.13L5.6866 15.2786H14.0483C15.7938 15.2786 17.0889 14.8977 17.9335 14.1359C18.8063 13.3741 19.2427 12.316 19.2427 10.9617C19.2427 9.57911 18.8063 8.50693 17.9335 7.74512C17.0889 6.9833 15.7938 6.6024 14.0483 6.6024H5.6866L9.4029 2.751V19.13Z" fill="#CF2B5B"/>
<path d="M12.1616 38.8244V23.5316H17.2574V27.9897L16.4972 26.72C16.9477 25.5726 17.6797 24.7167 18.6932 24.1524C19.7068 23.5693 20.9362 23.2777 22.3814 23.2777V28.1025C22.1374 28.0649 21.9216 28.0461 21.7339 28.0461C21.5649 28.0273 21.3772 28.0179 21.1708 28.0179C20.0822 28.0179 19.2 28.3189 18.5243 28.9208C17.8486 29.5039 17.5108 30.4632 17.5108 31.7987V38.8244H12.1616Z" fill="#151A45"/>
<path d="M32.1092 39.0783C30.4387 39.0783 28.956 38.7397 27.6609 38.0626C26.3658 37.3854 25.3429 36.4543 24.5921 35.2692C23.8601 34.0654 23.4941 32.6922 23.4941 31.1498C23.4941 29.6074 23.8601 28.2436 24.5921 27.0586C25.3429 25.8735 26.3658 24.9518 27.6609 24.2935C28.956 23.6163 30.4387 23.2777 32.1092 23.2777C33.7797 23.2777 35.2624 23.6163 36.5575 24.2935C37.8713 24.9518 38.8943 25.8735 39.6263 27.0586C40.3583 28.2436 40.7243 29.6074 40.7243 31.1498C40.7243 32.6922 40.3583 34.0654 39.6263 35.2692C38.8943 36.4543 37.8713 37.3854 36.5575 38.0626C35.2624 38.7397 33.7797 39.0783 32.1092 39.0783ZM32.1092 34.8178C32.7286 34.8178 33.2729 34.6767 33.7421 34.3946C34.2301 34.1124 34.6149 33.6986 34.8964 33.1531C35.178 32.5888 35.3187 31.921 35.3187 31.1498C35.3187 30.3786 35.178 29.7296 34.8964 29.2029C34.6149 28.6574 34.2301 28.2436 33.7421 27.9615C33.2729 27.6793 32.7286 27.5382 32.1092 27.5382C31.5086 27.5382 30.9643 27.6793 30.4763 27.9615C30.007 28.2436 29.6223 28.6574 29.322 29.2029C29.0404 29.7296 28.8997 30.3786 28.8997 31.1498C28.8997 31.921 29.0404 32.5888 29.322 33.1531C29.6223 33.6986 30.007 34.1124 30.4763 34.3946C30.9643 34.6767 31.5086 34.8178 32.1092 34.8178Z" fill="#151A45"/>
<path d="M43.2022 38.8244V17.8886H48.5515V38.8244H43.2022Z" fill="#151A45"/>
<path d="M61.3467 38.8244V35.9746L60.9807 35.2692V30.0212C60.9807 29.1747 60.7179 28.5258 60.1924 28.0743C59.6856 27.6041 58.8692 27.3689 57.743 27.3689C57.011 27.3689 56.2696 27.4912 55.5189 27.7357C54.7681 27.9615 54.13 28.2812 53.6044 28.6951L51.8026 25.0553C52.6659 24.491 53.6982 24.0583 54.8995 23.7574C56.1195 23.4376 57.3301 23.2777 58.5313 23.2777C61.0089 23.2777 62.9233 23.8514 64.2747 24.9988C65.6449 26.1275 66.3299 27.905 66.3299 30.3316V38.8244H61.3467ZM56.8421 39.0783C55.6221 39.0783 54.5898 38.8714 53.7452 38.4576C52.9006 38.0437 52.253 37.4794 51.8026 36.7646C51.3709 36.0499 51.155 35.2504 51.155 34.3663C51.155 33.4258 51.3896 32.617 51.8589 31.9398C52.3469 31.2438 53.0883 30.7172 54.083 30.3598C55.0778 29.9836 56.3635 29.7955 57.9401 29.7955H61.5438V32.5888H58.6721C57.8087 32.5888 57.1987 32.7299 56.8421 33.012C56.5043 33.2942 56.3353 33.6704 56.3353 34.1406C56.3353 34.6109 56.5136 34.9871 56.8703 35.2692C57.2269 35.5514 57.7149 35.6925 58.3343 35.6925C58.9161 35.6925 59.4416 35.5514 59.9109 35.2692C60.3989 34.9683 60.7555 34.5168 60.9807 33.9149L61.7127 35.89C61.4312 36.9433 60.8775 37.7428 60.0516 38.2883C59.2446 38.815 58.1747 39.0783 56.8421 39.0783Z" fill="#151A45"/>
<path d="M79.3069 39.0783C77.9367 39.0783 76.7918 38.7962 75.8721 38.2318C74.9712 37.6675 74.2955 36.8023 73.845 35.636C73.3946 34.4698 73.1693 32.9744 73.1693 31.1498C73.1693 29.3628 73.4039 27.8862 73.8732 26.72C74.3612 25.5537 75.065 24.6885 75.9847 24.1242C76.9044 23.5599 78.0118 23.2777 79.3069 23.2777C80.6958 23.2777 81.9533 23.5975 83.0795 24.237C84.2244 24.8766 85.1253 25.7889 85.7823 26.9739C86.4579 28.1402 86.7958 29.5321 86.7958 31.1498C86.7958 32.7863 86.4579 34.1971 85.7823 35.3821C85.1253 36.5483 84.2244 37.4606 83.0795 38.119C81.9533 38.7585 80.6958 39.0783 79.3069 39.0783ZM69.7064 38.8244V17.8886H75.0556V26.0992L74.7741 31.1498L74.8023 36.2003V38.8244H69.7064ZM78.1807 34.8178C78.7813 34.8178 79.3163 34.6767 79.7855 34.3946C80.2735 34.1124 80.6583 33.6986 80.9398 33.1531C81.2401 32.5888 81.3903 31.921 81.3903 31.1498C81.3903 30.3786 81.2401 29.7296 80.9398 29.2029C80.6583 28.6574 80.2735 28.2436 79.7855 27.9615C79.3163 27.6793 78.7813 27.5382 78.1807 27.5382C77.5801 27.5382 77.0358 27.6793 76.5478 27.9615C76.0786 28.2436 75.6938 28.6574 75.3935 29.2029C75.112 29.7296 74.9712 30.3786 74.9712 31.1498C74.9712 31.921 75.112 32.5888 75.3935 33.1531C75.6938 33.6986 76.0786 34.1124 76.5478 34.3946C77.0358 34.6767 77.5801 34.8178 78.1807 34.8178Z" fill="#151A45"/>
<path d="M97.463 39.4404C94.6986 39.4404 92.7465 36.7326 93.62 34.1099L102.465 7.55349C103.362 4.8603 105.882 3.04349 108.721 3.04349C111.568 3.04349 114.093 4.87103 114.983 7.57544L123.834 34.4629C124.641 36.9157 122.814 39.4404 120.232 39.4404C118.611 39.4404 117.168 38.4093 116.644 36.8749L106.508 7.21846C108.814 7.21846 110.44 9.48049 109.706 11.6665L101.303 36.6798C100.749 38.3292 99.2029 39.4404 97.463 39.4404ZM99.4696 29.2029L101.816 23.2777H115.306L117.521 29.2029H99.4696Z" fill="#CF2B5B"/>
<path d="M126.733 38.8244V23.7009C126.733 21.8575 127.277 20.3903 128.366 19.2993C129.473 18.1895 131.05 17.6346 133.096 17.6346C133.752 17.6346 134.4 17.7005 135.038 17.8321C135.676 17.9638 136.211 18.1613 136.643 18.4247L135.32 22.2055C135.094 22.0738 134.841 21.9704 134.56 21.8952C134.278 21.8011 133.996 21.7541 133.715 21.7541C133.152 21.7541 132.711 21.9234 132.392 22.262C132.091 22.5817 131.941 23.0802 131.941 23.7574V24.8578L132.082 27.0868V38.8244H126.733ZM124.509 28.1025V24.096H135.573V28.1025H124.509Z" fill="#151A45"/>
<path d="M138.616 38.0626V22.7698H143.712V27.2279L142.952 25.9582C143.402 24.8107 144.134 23.9549 145.148 23.3906C146.161 22.8074 147.391 22.5159 148.836 22.5159V27.3407C148.592 27.3031 148.376 27.2843 148.188 27.2843C148.019 27.2655 147.832 27.2561 147.625 27.2561C146.537 27.2561 145.654 27.557 144.979 28.159C144.303 28.7421 143.965 29.7014 143.965 31.0369V38.0626H138.616Z" fill="#151A45"/>
<path d="M151.466 38.8244V23.5316H156.815V38.8244H151.466ZM154.14 21.8387C153.164 21.8387 152.376 21.566 151.775 21.0205C151.175 20.475 150.874 19.7978 150.874 18.989C150.874 18.1801 151.175 17.503 151.775 16.9575C152.376 16.412 153.164 16.1392 154.14 16.1392C155.116 16.1392 155.905 16.4026 156.505 16.9292C157.106 17.4371 157.406 18.0955 157.406 18.9043C157.406 19.7508 157.106 20.4562 156.505 21.0205C155.923 21.566 155.135 21.8387 154.14 21.8387Z" fill="#151A45"/>
<path d="M164.768 36.0028L164.908 29.5979L171.13 23.5316H177.465L170.567 30.6701L167.836 32.8709L164.768 36.0028ZM160.319 38.8244V17.8886H165.669V38.8244H160.319ZM171.525 38.8244L166.851 32.9556L170.173 28.8361L178 38.8244H171.525Z" fill="#151A45"/>
</svg>
