<svg width="580" height="478" viewBox="0 0 580 478" fill="none" xmlns="http://www.w3.org/2000/svg">
<path d="M28.7692 259.289C14.2399 259.289 2.42195 247.586 2.2797 233.058L0 0.221191H79.4017C97.2636 0.221191 112.825 1.04892 125.663 6.8259C138.687 12.6029 148.332 22.2498 155.402 33.2447C162.472 44.0533 168.62 57.9647 168.62 72.873C168.62 87.595 162.473 101.693 155.402 112.501C148.332 123.31 141.992 126.352 128.967 132.315C116.129 138.092 103.872 138.92 86.0104 138.92H30.6998L55.26 117.397V232.798C55.26 247.429 43.3996 259.289 28.7692 259.289V259.289ZM55.26 123.267L30.6998 97.8297H85.9601C97.496 97.8297 106.055 95.3139 111.637 90.2823C117.405 85.2507 120.289 78.2625 120.289 69.3175C120.289 60.1861 117.405 53.1047 111.637 48.0731C106.055 43.0415 97.496 40.5257 85.9601 40.5257H30.6998L55.26 15.0884V123.267Z" fill="#CF2B5B"/>
<path d="M87.5895 254.015V153.011H121.267V182.455L116.243 174.069C119.22 166.491 124.058 160.838 130.756 157.111C137.454 153.259 145.579 151.334 155.13 151.334V183.2C153.517 182.952 152.091 182.828 150.85 182.828C149.734 182.703 148.494 182.641 147.129 182.641C139.935 182.641 134.105 184.629 129.639 188.605C125.174 192.456 122.941 198.792 122.941 207.613V254.015H87.5895Z" fill="url(#paint0_linear_2001_2)"/>
<path d="M220.223 255.692C209.183 255.692 199.384 253.456 190.825 248.983C182.266 244.511 175.506 238.361 170.544 230.534C165.707 222.583 163.288 213.514 163.288 203.327C163.288 193.139 165.707 184.132 170.544 176.305C175.506 168.478 182.266 162.391 190.825 158.042C199.384 153.57 209.183 151.334 220.223 151.334C231.262 151.334 241.062 153.57 249.62 158.042C258.303 162.391 265.063 168.478 269.901 176.305C274.739 184.132 277.157 193.139 277.157 203.327C277.157 213.514 274.739 222.583 269.901 230.534C265.063 238.361 258.303 244.511 249.62 248.983C241.062 253.456 231.262 255.692 220.223 255.692ZM220.223 227.553C224.316 227.553 227.913 226.621 231.014 224.757C234.24 222.894 236.782 220.161 238.643 216.558C240.504 212.831 241.434 208.42 241.434 203.327C241.434 198.233 240.504 193.947 238.643 190.468C236.782 186.865 234.24 184.132 231.014 182.269C227.913 180.405 224.316 179.473 220.223 179.473C216.253 179.473 212.656 180.405 209.431 182.269C206.33 184.132 203.787 186.865 201.803 190.468C199.942 193.947 199.012 198.233 199.012 203.327C199.012 208.42 199.942 212.831 201.803 216.558C203.787 220.161 206.33 222.894 209.431 224.757C212.656 226.621 216.253 227.553 220.223 227.553Z" fill="url(#paint1_linear_2001_2)"/>
<path d="M299.112 255.672V117.397H334.464V255.672H299.112Z" fill="url(#paint2_linear_2001_2)"/>
<path d="M412.214 255.692V236.87L409.795 232.211V197.55C409.795 191.959 408.058 187.673 404.585 184.691C401.236 181.585 395.84 180.032 388.398 180.032C383.56 180.032 378.66 180.84 373.699 182.455C368.737 183.946 364.52 186.058 361.047 188.791L349.139 164.751C354.845 161.024 361.667 158.167 369.605 156.179C377.668 154.067 385.669 153.011 393.607 153.011C409.981 153.011 422.633 156.8 431.564 164.378C440.619 171.833 445.146 183.573 445.146 199.6V255.692H412.214ZM382.444 257.369C374.381 257.369 367.559 256.003 361.977 253.27C356.395 250.536 352.116 246.809 349.139 242.088C346.286 237.367 344.86 232.087 344.86 226.248C344.86 220.036 346.41 214.694 349.511 210.222C352.736 205.625 357.635 202.146 364.21 199.786C370.784 197.301 379.281 196.059 389.7 196.059H413.516V214.508H394.538C388.832 214.508 384.801 215.44 382.444 217.303C380.211 219.167 379.095 221.651 379.095 224.757C379.095 227.863 380.273 230.348 382.63 232.211C384.987 234.075 388.212 235.007 392.305 235.007C396.15 235.007 399.623 234.075 402.724 232.211C405.949 230.224 408.306 227.242 409.795 223.267L414.632 236.311C412.772 243.268 409.113 248.549 403.655 252.151C398.321 255.63 391.251 257.369 382.444 257.369Z" fill="url(#paint3_linear_2001_2)"/>
<path d="M526.6 257.349C517.545 257.349 509.979 255.486 503.901 251.758C497.947 248.031 493.481 242.316 490.504 234.614C487.527 226.911 486.039 217.034 486.039 204.983C486.039 193.181 487.589 183.428 490.69 175.726C493.915 168.023 498.567 162.308 504.645 158.581C510.723 154.854 518.041 152.991 526.6 152.991C535.779 152.991 544.09 155.103 551.533 159.327C559.099 163.551 565.053 169.576 569.395 177.403C573.86 185.106 576.093 194.299 576.093 204.983C576.093 215.792 573.86 225.11 569.395 232.937C565.053 240.639 559.099 246.665 551.533 251.013C544.09 255.237 535.779 257.349 526.6 257.349ZM463.153 255.672V117.397H498.505V171.626L496.644 204.983L496.83 238.341V255.672H463.153ZM519.158 229.21C523.127 229.21 526.662 228.278 529.763 226.414C532.988 224.551 535.531 221.817 537.392 218.215C539.377 214.487 540.369 210.077 540.369 204.983C540.369 199.89 539.377 195.604 537.392 192.125C535.531 188.522 532.988 185.789 529.763 183.925C526.662 182.062 523.127 181.13 519.158 181.13C515.188 181.13 511.591 182.062 508.366 183.925C505.265 185.789 502.722 188.522 500.738 192.125C498.877 195.604 497.947 199.89 497.947 204.983C497.947 210.077 498.877 214.487 500.738 218.215C502.722 221.817 505.265 224.551 508.366 226.414C511.591 228.278 515.188 229.21 519.158 229.21Z" fill="url(#paint4_linear_2001_2)"/>
<path d="M50.8283 477.221C31.8165 477.221 18.3528 458.65 24.2648 440.581L69.1331 303.448C75.1222 285.143 92.1994 272.763 111.459 272.763V272.763C129.923 272.763 146.472 284.156 153.061 301.404L206.073 440.18C212.9 458.052 199.703 477.221 180.571 477.221V477.221C168.943 477.221 158.591 469.856 154.78 458.87L94.8861 286.236V286.236C111.006 286.236 122.625 301.693 118.145 317.178L77.6762 457.04C74.2174 468.994 63.2723 477.221 50.8283 477.221V477.221ZM51.9291 427.686L64.9558 388.058H157.669L170.887 427.686H51.9291Z" fill="#CF2B5B"/>
<path d="M233.619 458.278V358.392C233.619 346.217 237.216 336.527 244.41 329.321C251.729 321.991 262.148 318.326 275.669 318.326C280.01 318.326 284.289 318.761 288.507 319.631C292.724 320.5 296.259 321.805 299.112 323.544L290.368 348.515C288.879 347.646 287.204 346.963 285.344 346.466C283.483 345.844 281.623 345.534 279.762 345.534C276.041 345.534 273.126 346.652 271.017 348.888C269.033 351 268.04 354.292 268.04 358.765V366.033L268.971 380.755V458.278H233.619ZM217.558 387.464V361.001H292.042V387.464H217.558Z" fill="url(#paint5_linear_2001_2)"/>
<path d="M311.554 456.352V355.349H345.231V384.793L340.207 376.407C343.184 368.829 348.022 363.176 354.72 359.448C361.419 355.597 369.543 353.671 379.095 353.671V385.538C377.482 385.29 376.056 385.166 374.815 385.166C373.699 385.041 372.458 384.979 371.094 384.979C363.899 384.979 358.07 386.967 353.604 390.943C349.139 394.794 346.906 401.13 346.906 409.951V456.352H311.554Z" fill="url(#paint6_linear_2001_2)"/>
<path d="M393.291 456.361V355.357H428.643V456.361H393.291ZM410.967 344.176C404.517 344.176 399.307 342.375 395.338 338.772C391.368 335.169 389.384 330.697 389.384 325.354C389.384 320.012 391.368 315.54 395.338 311.937C399.307 308.334 404.517 306.533 410.967 306.533C417.417 306.533 422.626 308.272 426.596 311.751C430.565 315.105 432.55 319.453 432.55 324.795C432.55 330.386 430.565 335.045 426.596 338.772C422.75 342.375 417.541 344.176 410.967 344.176Z" fill="url(#paint7_linear_2001_2)"/>
<path d="M492.551 439.642L493.481 397.34L534.601 357.274H576.465L530.879 404.422L512.832 418.957L492.551 439.642ZM463.153 458.278V320.003H498.505V458.278H463.153ZM537.206 458.278L506.319 419.516L528.275 392.309L580 458.278H537.206Z" fill="url(#paint8_linear_2001_2)"/>
<defs>
<linearGradient id="paint0_linear_2001_2" x1="285.93" y1="0.221191" x2="285.93" y2="477.221" gradientUnits="userSpaceOnUse">
<stop stop-color="#151A45"/>
<stop offset="1" stop-color="#0E1A7C"/>
</linearGradient>
<linearGradient id="paint1_linear_2001_2" x1="285.93" y1="0.221191" x2="285.93" y2="477.221" gradientUnits="userSpaceOnUse">
<stop stop-color="#151A45"/>
<stop offset="1" stop-color="#0E1A7C"/>
</linearGradient>
<linearGradient id="paint2_linear_2001_2" x1="285.93" y1="0.221191" x2="285.93" y2="477.221" gradientUnits="userSpaceOnUse">
<stop stop-color="#151A45"/>
<stop offset="1" stop-color="#0E1A7C"/>
</linearGradient>
<linearGradient id="paint3_linear_2001_2" x1="285.93" y1="0.221191" x2="285.93" y2="477.221" gradientUnits="userSpaceOnUse">
<stop stop-color="#151A45"/>
<stop offset="1" stop-color="#0E1A7C"/>
</linearGradient>
<linearGradient id="paint4_linear_2001_2" x1="285.93" y1="0.221191" x2="285.93" y2="477.221" gradientUnits="userSpaceOnUse">
<stop stop-color="#151A45"/>
<stop offset="1" stop-color="#0E1A7C"/>
</linearGradient>
<linearGradient id="paint5_linear_2001_2" x1="285.93" y1="0.221191" x2="285.93" y2="477.221" gradientUnits="userSpaceOnUse">
<stop stop-color="#151A45"/>
<stop offset="1" stop-color="#0E1A7C"/>
</linearGradient>
<linearGradient id="paint6_linear_2001_2" x1="285.93" y1="0.221191" x2="285.93" y2="477.221" gradientUnits="userSpaceOnUse">
<stop stop-color="#151A45"/>
<stop offset="1" stop-color="#0E1A7C"/>
</linearGradient>
<linearGradient id="paint7_linear_2001_2" x1="285.93" y1="0.221191" x2="285.93" y2="477.221" gradientUnits="userSpaceOnUse">
<stop stop-color="#151A45"/>
<stop offset="1" stop-color="#0E1A7C"/>
</linearGradient>
<linearGradient id="paint8_linear_2001_2" x1="285.93" y1="0.221191" x2="285.93" y2="477.221" gradientUnits="userSpaceOnUse">
<stop stop-color="#151A45"/>
<stop offset="1" stop-color="#0E1A7C"/>
</linearGradient>
</defs>
</svg>
